<svg width="25" height="25" viewBox="0 0 25 25" fill="none" xmlns="http://www.w3.org/2000/svg">
<path d="M23.4313 24.875C20.5667 24.875 17.7365 24.2505 14.9406 23.0016C12.1448 21.7526 9.60104 19.9823 7.30937 17.6906C5.01771 15.399 3.2474 12.8552 1.99844 10.0594C0.749479 7.26354 0.125 4.43333 0.125 1.56875C0.125 1.15625 0.2625 0.8125 0.5375 0.5375C0.8125 0.2625 1.15625 0.125 1.56875 0.125H7.1375C7.45833 0.125 7.74479 0.233854 7.99687 0.451562C8.24896 0.669271 8.39792 0.927083 8.44375 1.225L9.3375 6.0375C9.38333 6.40417 9.37187 6.71354 9.30313 6.96562C9.23438 7.21771 9.10833 7.43542 8.925 7.61875L5.59063 10.9875C6.04896 11.8354 6.59323 12.6547 7.22344 13.4453C7.85365 14.2359 8.54688 14.9979 9.30313 15.7313C10.0135 16.4417 10.7583 17.1005 11.5375 17.7078C12.3167 18.3151 13.1417 18.8708 14.0125 19.375L17.2437 16.1438C17.45 15.9375 17.7193 15.7828 18.0516 15.6797C18.3839 15.5766 18.7104 15.5479 19.0312 15.5938L23.775 16.5562C24.0958 16.6479 24.3594 16.8141 24.5656 17.0547C24.7719 17.2953 24.875 17.5646 24.875 17.8625V23.4313C24.875 23.8438 24.7375 24.1875 24.4625 24.4625C24.1875 24.7375 23.8438 24.875 23.4313 24.875ZM4.28438 8.375L6.55313 6.10625L5.96875 2.875H2.90938C3.02396 3.81458 3.18438 4.74271 3.39062 5.65938C3.59687 6.57604 3.89479 7.48125 4.28438 8.375ZM16.5906 20.6812C17.4844 21.0708 18.3953 21.3802 19.3234 21.6094C20.2516 21.8385 21.1854 21.9875 22.125 22.0562V19.0312L18.8938 18.3781L16.5906 20.6812Z" fill="#3675C9"/>
</svg>
