<svg width="29" height="23" viewBox="0 0 29 23" fill="none" xmlns="http://www.w3.org/2000/svg">
<path d="M3.5 22.5C2.74375 22.5 2.09635 22.2307 1.55781 21.6922C1.01927 21.1536 0.75 20.5063 0.75 19.75V3.25C0.75 2.49375 1.01927 1.84635 1.55781 1.30781C2.09635 0.769271 2.74375 0.5 3.5 0.5H25.5C26.2563 0.5 26.9036 0.769271 27.4422 1.30781C27.9807 1.84635 28.25 2.49375 28.25 3.25V19.75C28.25 20.5063 27.9807 21.1536 27.4422 21.6922C26.9036 22.2307 26.2563 22.5 25.5 22.5H3.5ZM25.5 6L15.2219 12.4281C15.1073 12.4969 14.987 12.5484 14.8609 12.5828C14.7349 12.6172 14.6146 12.6344 14.5 12.6344C14.3854 12.6344 14.2651 12.6172 14.1391 12.5828C14.013 12.5484 13.8927 12.4969 13.7781 12.4281L3.5 6V19.75H25.5V6ZM14.5 10.125L25.5 3.25H3.5L14.5 10.125ZM3.5 6.34375V4.31563V4.35V4.33281V6.34375Z" fill="#3675C9"/>
</svg>
